# xmcd
#
# Track frame offsets:
#	150
#	18692
#	31597
#	53382
#	81475
#	114985
#	133085
#
# Disc length: 2146 seconds
#
# Revision: 1
# Processed by: cddbd v1.5.1PL0 Copyright (c) Steve Scherf et al.
# Submitted via: audiograbber 1.83.01
#
DISCID=4f086007
DTITLE=Eddie Cleanhead Vinson - Jamming The Blues
DYEAR=1974
DGENRE=Blues
TTITLE0=Just a Dream
TTITLE1=Laura
TTITLE2=Person to Person
TTITLE3=Now's the Time
TTITLE4=Hold it right there
TTITLE5=Home Boy
TTITLE6=C Jam Blues
EXTD=Recorded live at the Montreux Jazz Festival, 2nd July 1974\nCopyright of t
EXTD=he compilation 1993
EXTT0=
EXTT1=
EXTT2=
EXTT3=
EXTT4=
EXTT5=
EXTT6=
PLAYORDER=
